<svg width="648" height="490" viewBox="0 0 648 490" fill="none" xmlns="http://www.w3.org/2000/svg">
<mask id="mask0" mask-type="alpha" maskUnits="userSpaceOnUse" x="0" y="0" width="648" height="490">
<path d="M586.962 12.9443C446.39 -49.131 390.042 133.479 295.141 166.024C200.694 212.339 107.118 164.084 51.3641 209.416C-37.0125 281.272 5.86081 401.217 65.0062 450.486C149.824 521.139 296.342 490.544 446.39 407.093C634.38 302.539 710.22 67.3739 586.962 12.9443Z" fill="#98C3E8"/>
</mask>
<g mask="url(#mask0)">
<rect x="-105.083" y="-80.5983" width="805.162" height="681.485" fill="url(#paint0_linear)"/>
<path d="M-3.49148 136.467C70.336 173.697 152.998 277.904 152.998 327.662C152.998 388.869 23.221 482.678 -36.3037 535.893L471.655 568.705C453.566 487.726 407.894 307.7 435.688 267.716C471.655 215.974 617.207 228.594 698.816 238.059L720.902 7.74235C681.148 24.3588 592.177 72.1048 543.589 59.4847C498.615 47.8031 412.34 -2.56405 375.742 -34.5349" stroke="white" stroke-opacity="0.2" stroke-width="15"/>
<path d="M186.441 79.6768C206.634 184.844 261.531 377.637 319.583 307.469C392.149 219.76 449.57 106.179 503.837 181.269C547.25 241.34 611.107 359.843 637.61 411.585" stroke="white" stroke-opacity="0.2" stroke-width="15"/>
<path fill-rule="evenodd" clip-rule="evenodd" d="M414 141C414 145.418 410.418 149 406 149C401.582 149 398 145.418 398 141C398 136.582 401.582 133 406 133C410.418 133 414 136.582 414 141ZM83 314C87.4183 314 91 310.418 91 306C91 301.582 87.4183 298 83 298C78.5817 298 75 301.582 75 306C75 310.418 78.5817 314 83 314ZM257 416C261.418 416 265 412.418 265 408C265 403.582 261.418 400 257 400C252.582 400 249 403.582 249 408C249 412.418 252.582 416 257 416ZM531 298C535.418 298 539 294.418 539 290C539 285.582 535.418 282 531 282C526.582 282 523 285.582 523 290C523 294.418 526.582 298 531 298Z" fill="white" fill-opacity="0.6"/>
<circle cx="53" cy="393" r="18" stroke="white" stroke-opacity="0.4" stroke-width="8"/>
<circle cx="633" cy="116" r="18" stroke="white" stroke-opacity="0.4" stroke-width="8"/>
<circle cx="383" cy="349" r="18" stroke="white" stroke-opacity="0.4" stroke-width="8"/>
</g>
<defs>
<linearGradient id="paint0_linear" x1="355.616" y1="-126.319" x2="317.792" y2="544.507" gradientUnits="userSpaceOnUse">
<stop stop-color="#D1ECFF"/>
<stop offset="1" stop-color="#1070B1"/>
</linearGradient>
</defs>
</svg>
