<svg width="137" height="232" viewBox="0 0 137 232" fill="none" xmlns="http://www.w3.org/2000/svg">
<path d="M117 230L115.5 225L123.5 223.5C127.333 225.5 134.7 229.9 133.5 231.5C133.1 232.3 122.333 230.833 117 230Z" fill="#D06262"/>
<path d="M76.5 183L81 190.5C80.6667 195.667 79.6 205.8 78 205C76.4 204.2 71.3333 191.333 69 185L76.5 183Z" fill="#D06262"/>
<path d="M50.3285 137.993C44.9991 132.458 40.1564 122.024 38.4013 117.5C43.529 115.019 54.9245 109.352 59.4845 106.522C64.0445 103.693 72.6929 97.2737 76.4471 94.4178C78.6371 96.3922 85.01 101.262 92.981 104.948C113.452 114.613 125.145 127.095 129.185 138.272C132.418 147.213 119.175 160.449 111.651 165.994C107.292 158.586 104.669 155.59 99.5006 148.534L101.257 140.338L90.933 137.271C92.4592 139.307 97.4608 146.01 105.258 156.54C119.328 174.125 124.2 204.172 124.878 216.997C122.253 217.573 115.79 218.636 110.937 218.279C110.364 212.05 102.559 198.211 95.1063 185.959C93.5899 187.773 91.4886 189.942 90.2647 190.054C84.0701 188.214 82.1512 180.089 81.966 176.256L86.6477 172.335C86.0061 171.31 85.4056 170.349 84.856 169.463C77.1926 157.113 56.9902 144.912 50.3285 137.993Z" fill="#1F3F68"/>
<path d="M78.347 93.2389C63.8128 104.451 33.7279 124.557 29.6621 115.291C24.5798 103.708 25.5756 103.616 22.7656 100.36C19.9555 97.1033 19.2686 89.6348 17.998 86.739C17.3594 85.2837 12.211 78.9169 8.09535 71.0802C8.09535 71.0802 7.9717 70.8534 7.76254 70.4388C4.84058 64.7368 2.53289 58.3203 2.91253 52.4766C3.20294 43.9141 9.71625 38.3913 9.71625 38.3913C13.5981 34.2529 17.2389 33.558 18.5 33.6695L18.5233 33.6853C21.5582 35.7492 26.0452 38.8005 27.6344 38.6543C29.2277 38.5078 31.5 35.5 33 34C40.6059 34.8068 42.9286 32.8586 48.8736 33.6695C56.2052 34.6695 76 45 91.5002 17.5C93.0397 17.8605 96.5105 19.229 99 19C90.5001 44 83 51.7812 76 54.2313C70.6276 56.1118 66.3951 56.636 63.0516 56.6017C62.4382 59.8634 61.6227 65.2243 60.2635 70.6913C63.0578 75.8066 66.0116 80.5054 68.3316 82.6116C74.358 88.0826 81.1631 91.1024 78.347 93.2389Z" fill="white"/>
<path d="M78.062 122.89L91.4771 137.723L101.258 140.338L100.674 144.911C102.919 142.027 105.797 135.101 99.346 130.472C92.8949 125.844 82.4687 123.489 78.062 122.89Z" fill="black" fill-opacity="0.2"/>
<path d="M86.6248 172.313L94.9235 186.111L93.5671 187.742C92.3424 185.344 89.126 183.129 86.4075 180.869C84.2328 179.061 83.7768 175.922 83.8206 174.579L86.6248 172.313Z" fill="black" fill-opacity="0.2"/>
<path d="M48.0673 97.0282C33.8696 95.5223 16.6038 80.6746 9.74559 73.439C25.6043 87.5458 44.0324 91.374 49.8698 89.3308C54.5397 87.6962 58.1198 75.5268 60.0006 70.5L63.7992 77.0031C64.4709 84.3056 62.2649 98.5342 48.0673 97.0282Z" fill="black" fill-opacity="0.2"/>
<path d="M42.9674 68.877C39.8195 69.4524 31.6739 62.5515 28.0187 59.2055C41.4737 69.0144 41.5005 64 58.5005 52C57.7623 53.0721 50.5005 67.5 42.9674 68.877Z" fill="black" fill-opacity="0.2"/>
<path d="M63.5 54.5C61.7872 54.1561 60.296 53.5762 58.5 52L60 48.5C59.8333 47.6667 59.6 45.8 60 45C60.4 44.2 62 43.3333 62.5 43L62 45.5L64.5 42.5L68.5 46L68 49.5L65 51L63.5 54.5Z" fill="#F2994A"/>
<path d="M100 14L99 19C97.4 19.4 93.1667 18.1667 91.5 17.5C92 16 93.6 12 94 10C94.4 8 98.1667 5.83333 100 5H102L100 8.5V14Z" fill="#F2994A"/>
<path d="M15.9997 23.5C16.7997 25.1 18.9997 28.5 19.9997 30C20.6664 28.6667 21.5998 25.7 19.9997 24.5C18.3997 23.3 16.9997 21.3333 16.4998 20.5C16.9998 20.1667 18.2998 19.5 19.4998 19.5C18.6998 13.5 22.8331 11.3333 24.9998 11L33.4998 10.5L33.9998 13C37.1664 10 42.8998 3.49999 40.4998 1.49999C37.4998 -1.00001 28.4998 5.49999 22.4998 5.49999C16.4998 5.49999 13.9997 8.49999 12.4997 11.5C10.9997 14.5 14.9997 21.5 15.9997 23.5Z" fill="#316099"/>
<path d="M27.5 39C25.9 39 21.3333 35.8334 18.5 34C19.8333 33.3334 20.5 30.8 20.5 30C20.5 29 21.5 25 20.5 24.5C19.5 24 16.5 22 16.5 21C16.5 20.2 18.5 20 19.5 20C19.1667 18.3334 19.1 14.5 21.5 12.5C23.9 10.5 30.5 10.3334 33.5 10.5C33.6667 11.1667 34.3 14 35.5 20C36.7 26 34 28.8334 32.5 29.5L33 34C31.8333 35.5 29.1 39 27.5 39Z" fill="#F2994A"/>
<path d="M123.5 223.5L123 217.5C119.469 218.446 117.371 218.613 113.5 218.5L115.5 225L123.5 223.5Z" fill="#98C3E8"/>
<path d="M81 190.5L87 188.5C84.3218 185.423 83.4206 183.668 82.5 180.5L76.5 183L81 190.5Z" fill="#98C3E8"/>
</svg>
