<svg width="179" height="214" viewBox="0 0 179 214" fill="none" xmlns="http://www.w3.org/2000/svg">
<path d="M0.390491 5C-0.725944 9.36427 0.787068 11.8801 1.97754 12.5C4.33986 13.7302 6.9775 15.2698 6.9775 15.2698C6.9775 15.2698 23.4064 43.4145 28.1683 45.4286C33.7238 47.7784 46.422 49 46.422 49L51.9775 37.8889C51.9775 37.8889 39.2794 35.1111 33.7238 33.9206C29.9804 33.1185 13.4858 15.2698 13.4858 15.2698L16.6604 9.71429H10.708C6.34298 6.53968 3.9775 0 3.9775 0C3.9775 0 1.15284 2.0199 0.390491 5Z" fill="url(#paint0_linear)"/>
<path d="M65.4775 55.5C63.4775 53.5 51.9775 50.3333 46.4775 49L51.9775 38C54.1442 38 60.4775 37.5 68.4775 35.5C78.4775 33 81.9775 24 93.4775 33.5C102.678 41.1 118.644 74.3333 125.478 90C114.731 100.243 107.594 103.569 93.4775 106.5C92.6442 104.833 90.1775 99.2 86.9775 90C82.9775 78.5 70.4775 78.5 68.4775 74.5C66.4775 70.5 67.9775 58 65.4775 55.5Z" fill="url(#paint1_linear)"/>
<path d="M101.478 169C97.8775 161 97.8109 123 96.4775 105.5C108.671 103.103 115.111 100.016 125.478 89.5C125.478 89.5 142.478 97.5 141.478 116C140.478 134.5 147.998 143.841 152.478 150C156.478 155.5 165.978 167.167 170.978 175L165.978 184.5C160.478 178.667 144.378 166.8 135.978 160C127.578 153.2 124.811 136.167 123.478 127C122.644 136.667 118.478 154.4 120.478 160C122.478 165.6 143.978 182.5 152.478 191L149.478 199.5C134.978 192.667 105.078 177 101.478 169Z" fill="url(#paint2_linear)"/>
<path d="M59.4775 21.5C59.8775 19.9 59.3109 15.1667 59.9775 13.5C64.7775 14.3 67.4775 17.6667 68.4775 19C69.4775 18.8333 70.9118 18.3686 71.4775 19.5C71.9775 20.5 71.4775 22.5 69.9775 24L73.4775 33.5C71.8187 34.5773 70.809 34.939 68.9775 35.5C69.9775 33 69.4775 31 68.9775 30C65.3775 32.8 63.9775 32.6667 62.4775 32.5L60.9773 26L58.4775 26.5C58.9775 25.6667 59.0775 23.1 59.4775 21.5Z" fill="url(#paint3_linear)"/>
<path d="M68.4769 19C66.4769 16.2 61.6436 14.1667 59.4769 13.5C55.4769 10.5 57.4769 4.00001 66.9769 1.00001C76.4769 -1.99999 80.4769 6.00001 82.4769 8.00001C84.4769 10 85.4769 16.5 94.4769 20.5C103.477 24.5 102.977 19.5 108.477 19.5C113.977 19.5 116.477 23 115.477 26C114.477 29 113.977 32.5 119.977 36.5C125.977 40.5 120.477 46 119.977 52C119.477 58 111.477 55 102.977 55C94.4769 55 95.9769 55 94.4769 49.5C92.9769 44 90.477 42 87.4769 40.5C84.4769 39 77.4769 40 75.9769 38.5C74.7769 37.3 71.4769 28.3333 69.9769 24C70.6436 23 71.8769 20.7 71.4769 19.5C71.077 18.3 69.3103 18.6667 68.4769 19Z" fill="#F2994A"/>
<path d="M49.4775 79.5L73.4775 78C76.2775 78.4 80.9775 81.8333 82.9775 83.5C82.3109 85 80.3775 88 77.9775 88C75.5775 88 57.9775 85 49.4775 83.5H47.4775V76L49.4775 79.5Z" fill="url(#paint4_linear)"/>
<path d="M47.4775 87V70H38.9775V87H47.4775Z" fill="#F2C94C"/>
<path d="M165.978 213.5C163.578 213.1 153.811 203.833 149.478 199.5L152.478 191C154.478 191.833 158.678 193.3 159.478 194.5C160.478 196 168.978 214 165.978 213.5Z" fill="#5A98D0"/>
<path d="M177.978 202.5C176.778 200.5 169.478 190.833 165.978 184.5L170.978 175C173.311 177 173.478 177 175.978 180.5C177.14 182.127 179.478 205 177.978 202.5Z" fill="#5A98D0"/>
<path opacity="0.2" d="M126.478 112.5L123.478 127.5C123.978 133 126.978 146.5 131.978 156C125.978 137 127.978 122.833 126.478 112.5Z" fill="black"/>
<defs>
<linearGradient id="paint0_linear" x1="59.7352" y1="12.5756" x2="7.96428" y2="46.3947" gradientUnits="userSpaceOnUse">
<stop stop-color="#FFF8E1"/>
<stop offset="1" stop-color="#FFCC80"/>
</linearGradient>
<linearGradient id="paint1_linear" x1="85.9775" y1="29.2405" x2="85.9775" y2="106.5" gradientUnits="userSpaceOnUse">
<stop stop-color="#AF6CED"/>
<stop offset="1" stop-color="#5E199D"/>
</linearGradient>
<linearGradient id="paint2_linear" x1="133.728" y1="89.5" x2="133.728" y2="199.5" gradientUnits="userSpaceOnUse">
<stop stop-color="#EB5757"/>
<stop offset="1" stop-color="#872727"/>
</linearGradient>
<linearGradient id="paint3_linear" x1="75.7162" y1="19.1462" x2="57.5951" y2="26.7548" gradientUnits="userSpaceOnUse">
<stop stop-color="#FFF8E1"/>
<stop offset="1" stop-color="#FFCC80"/>
</linearGradient>
<linearGradient id="paint4_linear" x1="88.276" y1="79.0797" x2="76.5956" y2="100.359" gradientUnits="userSpaceOnUse">
<stop stop-color="#FFF8E1"/>
<stop offset="1" stop-color="#FFCC80"/>
</linearGradient>
</defs>
</svg>
